<svg xmlns="http://www.w3.org/2000/svg" width="700" height="62" viewBox="0 0 700 62" version="1.1">
	<path d="M 309 1.605 C 297.813 4.601, 292.284 10.954, 293.268 19.682 C 294.225 28.176, 300.225 31.532, 317.195 33.068 C 342.407 35.350, 346.319 36.437, 347.594 41.520 C 349.113 47.571, 342.317 51.902, 330.018 52.722 C 321.051 53.320, 313.179 51.992, 304.724 48.455 C 296.457 44.998, 296.210 45.002, 293.345 48.669 L 290.868 51.838 294.684 54.446 C 307.371 63.114, 336.611 64.462, 349.706 56.983 C 357.608 52.470, 361.173 43.078, 357.595 36.200 C 353.653 28.624, 347.647 26.327, 326.968 24.486 C 318.425 23.726, 310.550 22.787, 309.468 22.400 C 306.237 21.244, 304 18.830, 304 16.500 C 304 8.711, 324.183 6.535, 341.347 12.473 L 349.195 15.188 352.097 12.407 C 353.694 10.877, 355 9.343, 355 8.997 C 355 7.585, 346.669 3.834, 339.415 1.978 C 330.193 -0.380, 317.016 -0.542, 309 1.605 M 393.393 1.410 C 377.254 5.327, 367.020 16.809, 367.020 31 C 367.020 39.578, 370.029 46.042, 376.896 52.217 C 383.904 58.517, 391.050 61.121, 403.056 61.749 C 418.145 62.538, 429.774 58.913, 437.485 51.016 L 441.140 47.272 436.471 44.536 L 431.802 41.800 428.651 44.849 C 422.908 50.406, 416.712 52.498, 406 52.499 C 397.444 52.500, 395.904 52.202, 390.500 49.500 C 381.791 45.145, 378.500 40.072, 378.500 31 C 378.500 21.928, 381.791 16.855, 390.500 12.500 C 395.925 9.787, 397.410 9.503, 406 9.532 C 416.403 9.567, 422.946 11.661, 428.111 16.608 L 430.723 19.109 435.361 16.855 C 437.913 15.616, 440 14.288, 440 13.904 C 440 12.648, 433.035 7.059, 428.722 4.854 C 419.373 0.074, 404.764 -1.350, 393.393 1.410 M 471.776 1.418 C 451.453 7.274, 441.650 26.535, 450.302 43.610 C 456.893 56.616, 474.495 63.992, 492.327 61.220 C 502.034 59.710, 507.988 57.027, 513.901 51.495 C 520.913 44.937, 523.357 38.731, 522.790 28.927 C 522.075 16.590, 516.989 9.727, 504.060 3.657 C 498.374 0.988, 496.385 0.600, 487.060 0.346 C 480.298 0.161, 474.801 0.547, 471.776 1.418 M 0 31 L 0 61 5 61 L 10 61 10 49.500 L 10 38 33.467 38 L 56.934 38 57.217 49.250 L 57.500 60.500 62.250 60.805 L 67 61.110 67 31 L 67 0.890 62.250 1.195 L 57.500 1.500 57.222 15.250 L 56.944 29 33.472 29 L 10 29 10 15 L 10 1 5 1 L 0 1 0 31 M 161.704 2.378 C 156.044 3.955, 151.543 7.930, 149.773 12.915 C 148.890 15.403, 148.500 23.231, 148.500 38.500 L 148.500 60.500 153.750 60.802 L 159 61.105 159 49.552 L 159 38 181.967 38 L 204.934 38 205.217 49.250 L 205.500 60.500 210.500 60.500 L 215.500 60.500 215.801 39.500 C 216.129 16.570, 215.508 12.308, 211.158 7.661 C 205.857 1.998, 204.040 1.564, 184.500 1.292 C 171.845 1.115, 165.076 1.438, 161.704 2.378 M 221.403 2.391 C 221.104 3.171, 221.003 5.315, 221.180 7.155 L 221.500 10.500 235 10.500 L 248.500 10.500 249 35.500 L 249.500 60.500 254.500 60.500 L 259.500 60.500 260 35.500 L 260.500 10.500 274 10.500 L 287.500 10.500 287.500 6 L 287.500 1.500 254.724 1.236 C 227.175 1.015, 221.861 1.199, 221.403 2.391 M 531.453 2.263 C 531.186 2.957, 531.088 16.345, 531.234 32.013 L 531.500 60.500 537 60.500 L 542.500 60.500 542.500 50.500 L 542.500 40.500 566.500 40 C 590.444 39.501, 590.511 39.494, 595.154 36.764 C 600.962 33.350, 604 27.642, 604 20.144 C 604 10.665, 598.912 4.141, 589.900 2.063 C 583.127 0.502, 532.061 0.676, 531.453 2.263 M 612.453 2.263 C 612.186 2.957, 612.088 16.345, 612.234 32.013 L 612.500 60.500 643.500 60.500 L 674.500 60.500 674.500 56 L 674.500 51.500 648.500 51.302 L 622.500 51.105 622.204 44.552 L 621.909 38 639.454 38 L 657 38 657 33.500 L 657 29 639.462 29 L 621.925 29 622.212 19.930 L 622.500 10.861 647.250 10.962 L 672 11.063 672 6.032 L 672 1 642.469 1 C 619.606 1, 612.828 1.285, 612.453 2.263 M 79 6 L 79 10 110 10 L 141 10 141 6 L 141 2 110 2 L 79 2 79 6 M 687 2.706 C 684.553 3.601, 680.855 7.325, 679.864 9.894 C 678.617 13.125, 680.454 18.425, 683.707 20.984 C 690.045 25.970, 699.927 21.104, 699.978 12.973 C 700.006 8.544, 697.704 5.192, 693.401 3.394 C 689.841 1.907, 689.336 1.852, 687 2.706 M 684.455 7.455 C 680.167 11.742, 682.057 18.133, 688.259 20.323 C 692.755 21.911, 698.771 16.208, 697.585 11.482 C 695.980 5.086, 688.972 2.937, 684.455 7.455 M 685.667 7.667 C 685.300 8.033, 685 10.508, 685 13.167 C 685 16.796, 685.374 18, 686.500 18 C 687.333 18, 688 17.111, 688 16 C 688 13.378, 691.024 13.378, 691.710 16 C 691.998 17.100, 692.799 18, 693.490 18 C 694.892 18, 695.042 10.381, 693.681 8.250 C 692.847 6.946, 686.826 6.508, 685.667 7.667 M 474.882 10.381 C 467.992 12.843, 464.219 15.919, 461.571 21.234 C 456.978 30.450, 458.910 40.483, 466.477 46.721 C 476.522 55, 496.487 54.321, 505.390 45.397 C 513.853 36.913, 512.946 21.637, 503.554 14.474 C 496.845 9.356, 483.200 7.408, 474.882 10.381 M 542.960 10.500 C 542.939 10.500, 542.827 14.888, 542.711 20.250 L 542.500 30.001 564.827 30 L 587.154 30 590.077 27.077 C 594.462 22.692, 593.696 14.724, 588.640 12.117 C 586.967 11.254, 565.654 10.500, 542.960 10.500 M 688 11 C 688 11.550, 688.648 12, 689.441 12 C 690.234 12, 691.160 11.550, 691.500 11 C 691.840 10.450, 691.191 10, 690.059 10 C 688.927 10, 688 10.450, 688 11 M 163.364 12.170 C 160.371 13.619, 159 17.194, 159 23.547 L 159 29 182 29 L 205 29 205 22.455 C 205 16.838, 204.652 15.561, 202.545 13.455 C 200.123 11.032, 199.867 11.001, 182.795 11.068 C 173.078 11.106, 164.564 11.589, 163.364 12.170 M 79 33.500 L 79 38 110 38 L 141 38 141 33.500 L 141 29 110 29 L 79 29 79 33.500 M 79 56 L 79 60 110 60 L 141 60 141 56 L 141 52 110 52 L 79 52 79 56" stroke="none" fill="black" fill-rule="evenodd"/>
</svg>